<svg width="98" height="40" viewBox="0 0 98 40" fill="none" xmlns="http://www.w3.org/2000/svg">
<rect width="97.6471" height="40" fill="#12110F"/>
<path d="M92.5494 20.3101H85.9653C85.9128 20.3101 85.8866 20.2609 85.8866 20.2117C85.9128 19.2773 86.2014 16.9906 86.3063 16.0562C86.3063 16.007 86.4637 15.9824 86.5161 15.9824C86.6473 16.007 87.5916 16.007 87.749 15.9824C87.749 15.9824 88.195 15.8595 88.1687 15.5644C88.1425 15.2202 87.5654 11.8269 87.5392 10.8925C87.4867 10.1794 87.3293 9.63844 86.9883 9.61385C86.4899 9.58926 86.3063 10.2532 86.2801 10.5236C86.044 12.3432 84.6799 18.4413 84.6537 20.2117C84.6537 20.2609 84.6013 20.3101 84.575 20.3101H81.0075C80.9551 20.3101 80.9026 20.2363 80.9289 20.1626C80.9551 20.0396 80.9813 19.8921 81.0075 19.7445C81.1125 19.1544 81.9519 15.3677 82.2404 14.0891C82.529 12.8104 83.7619 5.40912 83.8143 4.96652C83.8143 4.89275 83.8405 4.86816 83.893 4.86816H89.7164C89.7688 4.86816 89.7951 4.89275 89.8213 4.94193C89.9525 5.65501 90.6345 9.58926 90.8968 10.9171C91.1591 12.2203 91.3427 13.5235 91.5788 14.8513C91.6837 15.4906 92.4707 19.6462 92.6281 20.1626C92.6543 20.2363 92.6018 20.3101 92.5494 20.3101Z" fill="#70E500"/>
<path d="M77.5552 4.86816H81.8834C81.9359 4.86816 81.9621 4.94193 81.9359 4.99111C81.8572 5.26159 81.1751 8.48275 80.5981 10.3515C79.916 12.4662 79.339 14.2858 79.2865 14.6054C79.2078 15.1218 79.2078 15.4169 79.2078 15.9578C79.2078 16.5726 79.1816 17.2119 79.1553 17.8266C79.1291 18.6134 79.1029 19.4249 79.1553 20.2117C79.1553 20.2855 79.1291 20.3101 79.1029 20.3101H74.1451C74.1189 20.3101 74.0927 20.2855 74.0927 20.2363C74.0927 20.0396 74.1451 15.8595 74.1714 15.2939C74.1714 14.7284 74.1189 14.7284 73.9615 14.1874C73.909 13.9661 73.6992 12.8842 73.2008 11.0892C72.5188 8.70406 71.8105 5.4583 71.7056 4.99111C71.6794 4.91734 71.7056 4.86816 71.7581 4.86816H76.0338C76.06 4.86816 76.0863 4.89275 76.0863 4.94193C76.1649 6.22056 76.2436 7.52378 76.4273 8.77782C76.4535 8.97454 76.5846 9.12207 76.7158 9.12207C76.847 9.12207 76.9519 8.97454 77.0044 8.77782C77.2142 7.86803 77.4241 5.26159 77.5027 4.91734C77.5027 4.89275 77.529 4.86816 77.5552 4.86816Z" fill="#70E500"/>
<path d="M72.6177 20.3101H66.0336C65.9812 20.3101 65.955 20.2609 65.955 20.2117C65.9812 19.2773 66.2697 16.9906 66.3747 16.0562C66.3747 16.007 66.532 15.9824 66.5845 15.9824C66.7157 16.007 67.66 16.007 67.8174 15.9824C67.8174 15.9824 68.2633 15.8595 68.2371 15.5644C68.2109 15.2202 67.6338 11.8269 67.6075 10.8925C67.5551 10.1794 67.3977 9.63844 67.0567 9.61385C66.5583 9.58926 66.3747 10.2532 66.3484 10.5236C66.1123 12.3432 64.7483 18.4413 64.7221 20.2117C64.7221 20.2609 64.6696 20.3101 64.6434 20.3101H61.0759C61.0234 20.3101 60.971 20.2363 60.9972 20.1626C61.0234 20.0396 61.0497 19.8921 61.0759 19.7445C61.1808 19.1544 62.0202 15.3677 62.3088 14.0891C62.5973 12.8104 63.8302 5.40912 63.8827 4.96652C63.8827 4.89275 63.9089 4.86816 63.9614 4.86816H69.7847C69.8372 4.86816 69.8634 4.89275 69.8897 4.94193C70.0208 5.65501 70.7028 9.58926 70.9652 10.9171C71.2275 12.2203 71.4111 13.5235 71.6472 14.8513C71.7521 15.4906 72.539 19.6462 72.6964 20.1626C72.7227 20.2363 72.6702 20.3101 72.6177 20.3101Z" fill="#70E500"/>
<path d="M59.536 16.425C59.536 17.0397 59.6933 20.1134 59.6933 20.1134C59.6933 20.2363 59.5884 20.3101 59.4573 20.3101C59.4573 20.3101 55.0241 20.3101 54.3946 20.3101C53.9224 20.3101 52.7682 20.3101 51.6403 19.3019C50.4599 18.2692 50.0926 16.425 50.0926 15.466C50.0926 14.5071 50.0664 9.93351 50.0664 9.93351C50.0664 8.23686 50.5648 6.93364 51.4042 6.14679C52.2698 5.38453 53.3716 4.86816 55.1553 4.86816H59.4573C59.5884 4.86816 59.6933 4.94193 59.6933 5.06488C59.6933 5.06488 59.6671 8.90077 59.6409 10.7695C59.6409 10.8679 59.5097 10.9662 59.3786 10.9662C58.4342 10.9171 57.044 10.7941 56.3095 10.8433C55.7324 10.8925 54.4208 10.6958 54.1585 11.9498C54.0274 12.5645 54.0536 13.4743 54.0798 14.0153C54.1323 14.9989 53.8962 15.6136 55.0766 15.6136C55.7062 15.589 55.9947 15.2202 55.9685 14.4087C55.9422 13.9415 55.916 12.9826 55.916 12.4908C55.9422 12.3678 55.9422 12.1219 56.3882 12.1465C56.5193 12.1465 59.2736 12.1465 59.3786 12.1465C59.5097 12.1465 59.6147 12.2449 59.6147 12.3432C59.6147 12.6875 59.6146 13.0317 59.5884 13.3514C59.5884 14.63 59.5622 15.1464 59.536 16.425Z" fill="#70E500"/>
<path d="M43.3814 4.86816H48.208C48.3654 4.86816 48.4966 4.99111 48.4966 5.13864C48.3129 7.54837 48.4441 15.2447 48.4966 16.5971C48.5228 17.7528 48.6015 18.8839 48.7064 20.0396C48.7064 20.1871 48.5753 20.3101 48.4179 20.3101H43.4339C43.3814 20.3101 43.329 20.2609 43.329 20.2117C43.5126 19.3511 43.4339 14.9251 43.4077 13.6219C43.3814 11.7039 43.3027 5.92549 43.3027 4.96652C43.329 4.91734 43.3552 4.89275 43.3814 4.86816Z" fill="#70E500"/>
<path d="M41.7671 17.8512C41.7671 18.2692 41.8458 20.138 41.8196 20.138C41.8196 20.2363 41.7671 20.3101 41.6885 20.3101H32.3501C32.2714 20.3101 32.2189 20.2363 32.2189 20.138V19.7691C32.2189 19.7445 32.2189 19.7445 32.2189 19.72C32.2189 19.6954 32.2189 19.6708 32.2189 19.6462V11.9498C32.2189 10.6712 32.2189 9.39255 32.2451 8.11392C32.2714 7.54837 32.2714 6.98282 32.2451 6.41727C32.2189 5.95008 32.1927 5.48289 32.2451 5.0157C32.2451 4.91734 32.2976 4.86816 32.3763 4.86816H37.2029C37.2816 4.86816 37.334 4.94193 37.334 5.04029C37.3603 6.07303 37.4127 7.10577 37.4652 8.13851C37.4914 8.827 37.4914 9.49091 37.5177 10.1794C37.5177 10.8187 37.4127 12.8596 37.439 13.253C37.4652 13.671 37.3865 14.1628 37.6226 14.4825C37.8324 14.7776 40.7966 14.5808 41.7147 14.6054C41.7671 14.6054 41.8458 14.6054 41.8196 14.7284C41.8196 14.8267 41.7934 15.9578 41.7671 16.3021C41.7409 16.8184 41.7409 17.3348 41.7671 17.8512Z" fill="#70E500"/>
<path d="M30.8892 20.3101H24.3051C24.2527 20.3101 24.2264 20.2609 24.2264 20.2117C24.2527 19.2773 24.5412 16.9906 24.6461 16.0562C24.6461 16.007 24.8035 15.9824 24.856 15.9824C24.9871 16.007 25.9315 16.007 26.0889 15.9824C26.0889 15.9824 26.5348 15.8595 26.5086 15.5644C26.4823 15.2202 25.9052 11.8269 25.879 10.8925C25.8266 10.1794 25.6692 9.63844 25.3282 9.61385C24.8298 9.58926 24.6461 10.2532 24.6199 10.5236C24.3838 12.3432 23.0198 18.4413 22.9936 20.2117C22.9936 20.2609 22.9411 20.3101 22.9149 20.3101H19.3474C19.2949 20.3101 19.2425 20.2363 19.2687 20.1626C19.2949 20.0396 19.3212 19.8921 19.3474 19.7445C19.4523 19.1544 20.2917 15.3677 20.5803 14.0891C20.8688 12.8104 22.1017 5.40912 22.1542 4.96652C22.1542 4.89275 22.1804 4.86816 22.2328 4.86816H28.0562C28.1087 4.86816 28.1349 4.89275 28.1612 4.94193C28.2923 5.65501 28.9743 9.58926 29.2366 10.9171C29.499 12.2203 29.6826 13.5235 29.9187 14.8513C30.0236 15.4906 30.8105 19.6462 30.9679 20.1626C30.9941 20.2363 30.9417 20.3101 30.8892 20.3101Z" fill="#70E500"/>
<path d="M17.8113 12.9099C17.8113 14.2623 18.0211 20.2129 18.0211 20.2129C18.0211 20.2621 17.9686 20.3112 17.9162 20.3112H14.4536C14.4012 20.3112 14.3487 20.2621 14.3487 20.2129C14.4012 18.8113 14.2962 17.5573 14.2962 16.0573C14.2962 15.7131 13.8765 15.541 13.7978 15.8852C13.4831 17.5327 13.3257 18.7867 13.0371 20.2375C13.0109 20.2866 12.9847 20.3112 12.9322 20.3112H11.778C11.7518 20.3112 11.6993 20.2866 11.6993 20.2375C11.3846 18.8851 11.4108 17.3851 11.0698 16.0082C10.9649 15.5656 10.5451 15.541 10.5451 15.9836C10.5714 17.213 10.3615 18.9588 10.3878 20.2129C10.3878 20.2621 10.3615 20.3112 10.3091 20.3112H7.0826C7.03014 20.3112 7.00391 20.2621 7.00391 20.2129V20.0408C7.18753 15.959 7.10883 8.16425 7.10883 7.42658C7.0826 6.61514 7.0826 5.82829 7.0826 5.04144C7.0826 5.01685 7.0826 4.99226 7.0826 4.96767C7.05637 4.91849 7.10883 4.84473 7.16129 4.84473H11.6469C11.6731 4.84473 11.7256 4.8939 11.7256 4.94308C11.9092 6.29548 11.9092 7.72165 12.1715 8.92651C12.224 9.12322 12.46 9.19699 12.5912 9.14781C12.7748 9.09863 12.8535 9.12322 12.8797 8.70521C12.906 8.28719 13.0634 6.07418 13.247 4.94308C13.2732 4.8939 13.2995 4.86932 13.3519 4.86932H17.89C17.9162 4.86932 17.9686 4.91849 17.9686 4.96767C17.9686 7.62329 17.8375 10.2543 17.8113 12.9099Z" fill="#70E500"/>
<path d="M80.887 30.2341C80.887 31.6637 80.8512 35.0412 80.8691 35.2914C80.8691 35.3093 80.8512 35.345 80.8155 35.345H73.9175C73.8818 35.345 73.8818 35.3271 73.8639 35.3093C73.7567 35.0234 73.6494 34.7196 73.5243 34.4336C73.2563 33.8439 73.1312 32.9146 72.8095 32.4321C72.6308 32.1998 72.2555 32.3785 72.2377 32.6823C72.1841 33.4329 72.2555 34.523 72.2734 35.2914C72.2734 35.3093 72.2555 35.3271 72.2377 35.3271H65.983C65.9651 35.3271 65.9473 35.3093 65.9473 35.2914C65.9473 33.3257 66.0188 31.3599 66.0366 29.3942C66.0366 27.7143 66.1081 25.8379 65.9651 24.3189V24.1402C65.9651 24.1224 65.983 24.1045 66.0187 24.1045H72.7559C72.7738 24.1045 72.7917 24.1045 72.7917 24.1224C73.1133 24.9623 73.3814 26.4634 73.7745 27.2497C73.846 27.3927 74.0069 27.4463 74.1498 27.4105C74.3106 27.3748 74.3821 27.2318 74.4 27.0889C74.4894 26.3383 74.4536 24.9265 74.4536 24.1402C74.4536 24.1224 74.4715 24.1045 74.4894 24.1045H80.887C80.9049 24.1045 80.9227 24.1224 80.9227 24.1402C80.9227 24.1581 80.9227 24.176 80.9227 24.1938C80.9227 26.2132 80.9049 28.2147 80.887 30.2341Z" fill="#FFA601"/>
<path d="M64.999 35.3271V35.345H56.7249C56.6713 35.345 56.6356 35.2914 56.6356 35.2557C56.6534 34.5766 56.9394 32.9146 57.0466 32.2356C57.0466 32.1998 57.1002 32.1641 57.1359 32.1641C57.261 32.1819 58.5835 32.2534 58.7443 32.0926C58.923 31.896 58.7086 31.2527 58.6728 30.9846C58.6192 30.6808 58.2797 29.1618 58.226 28.4828C58.1903 27.9645 58.0295 27.5714 57.6899 27.5535C57.2253 27.5356 57.0645 28.0181 57.0287 28.2147C56.7964 29.5371 56.6356 30.1626 56.4569 31.4314C56.2603 32.7002 56.0101 33.969 55.9744 35.2557C55.9744 35.2914 55.9386 35.345 55.885 35.345H50.2558C50.2022 35.345 50.1665 35.2914 50.1843 35.2378C50.2022 35.1306 50.2379 35.0234 50.2558 34.934C50.363 34.4872 51.1672 31.7352 51.4531 30.8059C51.7391 29.8767 52.4896 26.0702 52.7398 25.141C52.8292 24.8193 52.9185 24.4976 52.9721 24.176C52.9721 24.1224 53.0079 24.1045 53.0615 24.1045H62.2826C62.3184 24.1045 62.3541 24.1224 62.3541 24.1581C62.4971 24.6763 62.5864 25.409 62.7294 25.9094C63.0153 26.8565 63.1762 27.5356 63.4085 28.5006C63.6587 29.4478 63.8552 30.3949 64.0697 31.3599C64.1769 31.8245 64.9275 34.8446 65.0704 35.2199C65.1062 35.2735 65.0526 35.3271 64.999 35.3271Z" fill="#FFA601"/>
<path d="M49.3447 35.3271V35.345H41.0706C41.017 35.345 40.9813 35.2914 40.9813 35.2557C40.9992 34.5766 41.2851 32.9146 41.3923 32.2356C41.3923 32.1998 41.4459 32.1641 41.4817 32.1641C41.6067 32.1819 42.9292 32.2534 43.09 32.0926C43.2687 31.896 43.0543 31.2527 43.0185 30.9846C42.9649 30.6808 42.6254 29.1618 42.5718 28.4828C42.536 27.9645 42.3752 27.5714 42.0356 27.5535C41.571 27.5356 41.4102 28.0181 41.3744 28.2147C41.1421 29.5371 40.9813 30.1626 40.8026 31.4314C40.606 32.7002 40.3558 33.969 40.3201 35.2557C40.3201 35.2914 40.2843 35.345 40.2307 35.345H34.6015C34.5479 35.345 34.5122 35.2914 34.53 35.2378C34.5479 35.1306 34.5837 35.0234 34.6015 34.934C34.7087 34.4872 35.5129 31.7352 35.7988 30.8059C36.0848 29.8767 36.8353 26.0702 37.0855 25.141C37.1749 24.8193 37.2642 24.4976 37.3178 24.176C37.3178 24.1224 37.3536 24.1045 37.4072 24.1045H46.6283C46.6641 24.1045 46.6998 24.1224 46.6998 24.1581C46.8428 24.6763 46.9321 25.409 47.0751 25.9094C47.361 26.8565 47.5219 27.5356 47.7542 28.5006C48.0044 29.4478 48.201 30.3949 48.4154 31.3599C48.5226 31.8245 49.2732 34.8446 49.4161 35.2199C49.4519 35.2735 49.3983 35.3271 49.3447 35.3271Z" fill="#FFA601"/>
<path d="M34.24 30.5021C34.24 30.6987 34.2043 31.4671 34.0077 32.1462C33.8469 32.7359 33.6682 33.3078 33.0427 33.9511C32.4172 34.6123 31.1305 35.345 29.0218 35.345H19.4254C19.336 35.345 19.2645 35.2557 19.2824 35.1663C19.336 34.7553 19.336 32.0032 19.3182 31.0561C19.2824 30.0017 19.2288 28.9474 19.2109 27.9109V24.8193C19.2109 24.6227 19.2109 24.444 19.2288 24.2475C19.2288 24.1581 19.3003 24.1045 19.3896 24.1045H29.272C29.2899 24.1045 29.2899 24.1045 29.3078 24.1045C30.0404 24.1938 31.3807 24.3547 32.5066 25.1767C33.6324 25.9988 33.9719 27.3569 34.1149 28.1075C34.1864 28.5185 34.24 28.9295 34.24 29.3584C34.24 29.5907 34.24 30.0911 34.24 30.5021ZM24.715 30.3234C24.9652 30.2877 27.3063 30.3949 28.45 30.1268C29.0397 29.9839 28.861 29.4299 28.8253 29.3763C28.6108 29.0904 28.2713 29.0904 27.9317 29.0367C27.6458 29.001 25.3048 29.0189 24.7687 29.0367H24.7508C24.5721 29.0367 24.4827 29.0546 24.4827 29.2691V30.0375C24.4827 30.1805 24.5542 30.3413 24.715 30.3234Z" fill="#FFA601"/>
</svg>
